<mxfile host="app.diagrams.net" modified="2024-04-21T06:26:53.773Z" agent="Mozilla/5.0 (Windows NT 10.0; Win64; x64) AppleWebKit/537.36 (KHTML, like Gecko) Chrome/124.0.0.0 Safari/537.36" etag="HHq3PRkPijvwjTa7eZ7j" version="24.2.5" type="github">
  <diagram name="Page-1" id="2YBvvXClWsGukQMizWep">
    <mxGraphModel dx="1627" dy="868" grid="1" gridSize="10" guides="1" tooltips="1" connect="1" arrows="1" fold="1" page="1" pageScale="1" pageWidth="850" pageHeight="1100" math="0" shadow="0">
      <root>
        <mxCell id="0" />
        <mxCell id="1" parent="0" />
        <mxCell id="aM9ryv3xv72pqoxQDRHE-1" value="UI" style="shape=umlLifeline;perimeter=lifelinePerimeter;whiteSpace=wrap;html=1;container=0;dropTarget=0;collapsible=0;recursiveResize=0;outlineConnect=0;portConstraint=eastwest;newEdgeStyle={&quot;edgeStyle&quot;:&quot;elbowEdgeStyle&quot;,&quot;elbow&quot;:&quot;vertical&quot;,&quot;curved&quot;:0,&quot;rounded&quot;:0};" parent="1" vertex="1">
          <mxGeometry x="40" y="40" width="100" height="520" as="geometry" />
        </mxCell>
        <mxCell id="aM9ryv3xv72pqoxQDRHE-2" value="" style="html=1;points=[];perimeter=orthogonalPerimeter;outlineConnect=0;targetShapes=umlLifeline;portConstraint=eastwest;newEdgeStyle={&quot;edgeStyle&quot;:&quot;elbowEdgeStyle&quot;,&quot;elbow&quot;:&quot;vertical&quot;,&quot;curved&quot;:0,&quot;rounded&quot;:0};" parent="aM9ryv3xv72pqoxQDRHE-1" vertex="1">
          <mxGeometry x="45" y="70" width="10" height="190" as="geometry" />
        </mxCell>
        <mxCell id="aM9ryv3xv72pqoxQDRHE-3" value="Request Place Order" style="html=1;verticalAlign=bottom;startArrow=oval;endArrow=block;startSize=8;edgeStyle=elbowEdgeStyle;elbow=vertical;curved=0;rounded=0;" parent="aM9ryv3xv72pqoxQDRHE-1" target="aM9ryv3xv72pqoxQDRHE-2" edge="1">
          <mxGeometry relative="1" as="geometry">
            <mxPoint x="-70" y="70" as="sourcePoint" />
          </mxGeometry>
        </mxCell>
        <mxCell id="aM9ryv3xv72pqoxQDRHE-4" value="" style="html=1;points=[];perimeter=orthogonalPerimeter;outlineConnect=0;targetShapes=umlLifeline;portConstraint=eastwest;newEdgeStyle={&quot;edgeStyle&quot;:&quot;elbowEdgeStyle&quot;,&quot;elbow&quot;:&quot;vertical&quot;,&quot;curved&quot;:0,&quot;rounded&quot;:0};" parent="aM9ryv3xv72pqoxQDRHE-1" vertex="1">
          <mxGeometry x="50" y="120" width="10" height="80" as="geometry" />
        </mxCell>
        <mxCell id="aM9ryv3xv72pqoxQDRHE-5" value="Gateway Service" style="shape=umlLifeline;perimeter=lifelinePerimeter;whiteSpace=wrap;html=1;container=0;dropTarget=0;collapsible=0;recursiveResize=0;outlineConnect=0;portConstraint=eastwest;newEdgeStyle={&quot;edgeStyle&quot;:&quot;elbowEdgeStyle&quot;,&quot;elbow&quot;:&quot;vertical&quot;,&quot;curved&quot;:0,&quot;rounded&quot;:0};" parent="1" vertex="1">
          <mxGeometry x="340" y="40" width="100" height="520" as="geometry" />
        </mxCell>
        <mxCell id="aM9ryv3xv72pqoxQDRHE-6" value="" style="html=1;points=[];perimeter=orthogonalPerimeter;outlineConnect=0;targetShapes=umlLifeline;portConstraint=eastwest;newEdgeStyle={&quot;edgeStyle&quot;:&quot;elbowEdgeStyle&quot;,&quot;elbow&quot;:&quot;vertical&quot;,&quot;curved&quot;:0,&quot;rounded&quot;:0};" parent="aM9ryv3xv72pqoxQDRHE-5" vertex="1">
          <mxGeometry x="45" y="80" width="10" height="170" as="geometry" />
        </mxCell>
        <mxCell id="aM9ryv3xv72pqoxQDRHE-7" value="Place Order" style="html=1;verticalAlign=bottom;endArrow=block;edgeStyle=elbowEdgeStyle;elbow=vertical;curved=0;rounded=0;" parent="1" source="aM9ryv3xv72pqoxQDRHE-2" target="aM9ryv3xv72pqoxQDRHE-6" edge="1">
          <mxGeometry relative="1" as="geometry">
            <mxPoint x="195" y="130" as="sourcePoint" />
            <Array as="points">
              <mxPoint x="230" y="140" />
              <mxPoint x="180" y="120" />
            </Array>
          </mxGeometry>
        </mxCell>
        <mxCell id="aM9ryv3xv72pqoxQDRHE-9" value="Confirm Order Placement&lt;div&gt;&amp;amp; Forward Payment Link&lt;/div&gt;" style="html=1;verticalAlign=bottom;endArrow=block;edgeStyle=elbowEdgeStyle;elbow=vertical;curved=0;rounded=0;" parent="1" source="aM9ryv3xv72pqoxQDRHE-6" edge="1">
          <mxGeometry relative="1" as="geometry">
            <mxPoint x="175" y="160" as="sourcePoint" />
            <Array as="points">
              <mxPoint x="290" y="280" />
              <mxPoint x="190" y="160" />
            </Array>
            <mxPoint x="95" y="280" as="targetPoint" />
          </mxGeometry>
        </mxCell>
        <mxCell id="wiBz7AC0jUXsu6t4ET3I-1" value="Order Service" style="rounded=0;whiteSpace=wrap;html=1;" parent="1" vertex="1">
          <mxGeometry x="560" y="40" width="110" height="40" as="geometry" />
        </mxCell>
        <mxCell id="wiBz7AC0jUXsu6t4ET3I-4" value="" style="line;strokeWidth=2;direction=south;html=1;" parent="1" vertex="1">
          <mxGeometry x="610" y="80" width="10" height="480" as="geometry" />
        </mxCell>
        <mxCell id="wiBz7AC0jUXsu6t4ET3I-6" value="" style="endArrow=classic;html=1;rounded=0;fontSize=12;startSize=8;endSize=8;curved=1;" parent="1" edge="1">
          <mxGeometry relative="1" as="geometry">
            <mxPoint x="390" y="120" as="sourcePoint" />
            <mxPoint x="610" y="120" as="targetPoint" />
          </mxGeometry>
        </mxCell>
        <mxCell id="wiBz7AC0jUXsu6t4ET3I-7" value="Label" style="edgeLabel;resizable=0;html=1;fontSize=12;;align=center;verticalAlign=middle;" parent="wiBz7AC0jUXsu6t4ET3I-6" connectable="0" vertex="1">
          <mxGeometry relative="1" as="geometry" />
        </mxCell>
        <mxCell id="wiBz7AC0jUXsu6t4ET3I-9" value="Place Order" style="edgeLabel;html=1;align=center;verticalAlign=middle;resizable=0;points=[];fontSize=12;" parent="wiBz7AC0jUXsu6t4ET3I-6" vertex="1" connectable="0">
          <mxGeometry x="-0.0136" y="-1" relative="1" as="geometry">
            <mxPoint as="offset" />
          </mxGeometry>
        </mxCell>
        <mxCell id="wiBz7AC0jUXsu6t4ET3I-10" value="Payment Service" style="rounded=0;whiteSpace=wrap;html=1;" parent="1" vertex="1">
          <mxGeometry x="790" y="40" width="120" height="40" as="geometry" />
        </mxCell>
        <mxCell id="wiBz7AC0jUXsu6t4ET3I-11" value="" style="endArrow=none;html=1;rounded=0;fontSize=12;startSize=8;endSize=8;curved=1;" parent="1" edge="1">
          <mxGeometry width="50" height="50" relative="1" as="geometry">
            <mxPoint x="850" y="560" as="sourcePoint" />
            <mxPoint x="850" y="80" as="targetPoint" />
          </mxGeometry>
        </mxCell>
        <mxCell id="wiBz7AC0jUXsu6t4ET3I-12" value="" style="endArrow=classic;html=1;rounded=0;fontSize=12;startSize=8;endSize=8;curved=1;exitX=0.25;exitY=0.5;exitDx=0;exitDy=0;exitPerimeter=0;" parent="1" edge="1">
          <mxGeometry relative="1" as="geometry">
            <mxPoint x="615" y="160" as="sourcePoint" />
            <mxPoint x="400" y="160" as="targetPoint" />
          </mxGeometry>
        </mxCell>
        <mxCell id="wiBz7AC0jUXsu6t4ET3I-13" value="Label" style="edgeLabel;resizable=0;html=1;fontSize=12;;align=center;verticalAlign=middle;" parent="wiBz7AC0jUXsu6t4ET3I-12" connectable="0" vertex="1">
          <mxGeometry relative="1" as="geometry" />
        </mxCell>
        <mxCell id="wiBz7AC0jUXsu6t4ET3I-14" value="Generate Order Details" style="edgeLabel;html=1;align=center;verticalAlign=middle;resizable=0;points=[];fontSize=12;" parent="wiBz7AC0jUXsu6t4ET3I-12" vertex="1" connectable="0">
          <mxGeometry x="0.1353" y="1" relative="1" as="geometry">
            <mxPoint as="offset" />
          </mxGeometry>
        </mxCell>
        <mxCell id="wiBz7AC0jUXsu6t4ET3I-15" value="" style="endArrow=classic;html=1;rounded=0;fontSize=12;startSize=8;endSize=8;curved=1;" parent="1" edge="1">
          <mxGeometry relative="1" as="geometry">
            <mxPoint x="400" y="240" as="sourcePoint" />
            <mxPoint x="850" y="240" as="targetPoint" />
          </mxGeometry>
        </mxCell>
        <mxCell id="wiBz7AC0jUXsu6t4ET3I-16" value="Request Payment Link With Order Details" style="edgeLabel;resizable=0;html=1;fontSize=12;;align=center;verticalAlign=middle;" parent="wiBz7AC0jUXsu6t4ET3I-15" connectable="0" vertex="1">
          <mxGeometry relative="1" as="geometry" />
        </mxCell>
        <mxCell id="wiBz7AC0jUXsu6t4ET3I-17" value="" style="endArrow=classic;html=1;rounded=0;fontSize=12;startSize=8;endSize=8;curved=1;" parent="1" edge="1">
          <mxGeometry relative="1" as="geometry">
            <mxPoint x="850.5" y="280" as="sourcePoint" />
            <mxPoint x="400" y="280" as="targetPoint" />
            <Array as="points">
              <mxPoint x="750.5" y="280" />
            </Array>
          </mxGeometry>
        </mxCell>
        <mxCell id="wiBz7AC0jUXsu6t4ET3I-18" value="Return Generate Link and&lt;div&gt;Payment Details&lt;/div&gt;" style="edgeLabel;resizable=0;html=1;fontSize=12;;align=center;verticalAlign=middle;" parent="wiBz7AC0jUXsu6t4ET3I-17" connectable="0" vertex="1">
          <mxGeometry relative="1" as="geometry" />
        </mxCell>
        <mxCell id="wiBz7AC0jUXsu6t4ET3I-19" value="" style="curved=1;endArrow=classic;html=1;rounded=0;fontSize=12;startSize=8;endSize=8;" parent="1" edge="1">
          <mxGeometry width="50" height="50" relative="1" as="geometry">
            <mxPoint x="850" y="320" as="sourcePoint" />
            <mxPoint x="850" y="360" as="targetPoint" />
            <Array as="points">
              <mxPoint x="890" y="320" />
              <mxPoint x="920" y="320" />
              <mxPoint x="940" y="330" />
              <mxPoint x="930" y="360" />
            </Array>
          </mxGeometry>
        </mxCell>
        <mxCell id="wiBz7AC0jUXsu6t4ET3I-25" value="Check payment status" style="text;html=1;align=center;verticalAlign=middle;whiteSpace=wrap;rounded=0;fontSize=16;" parent="1" vertex="1">
          <mxGeometry x="930" y="300" width="100" height="70" as="geometry" />
        </mxCell>
        <mxCell id="wiBz7AC0jUXsu6t4ET3I-26" value="" style="endArrow=classic;html=1;rounded=0;fontSize=12;startSize=8;endSize=8;curved=1;entryX=0.9;entryY=0;entryDx=0;entryDy=0;entryPerimeter=0;" parent="1" edge="1">
          <mxGeometry relative="1" as="geometry">
            <mxPoint x="850" y="400" as="sourcePoint" />
            <mxPoint x="620" y="400" as="targetPoint" />
            <Array as="points">
              <mxPoint x="810" y="400" />
            </Array>
          </mxGeometry>
        </mxCell>
        <mxCell id="wiBz7AC0jUXsu6t4ET3I-27" value="Label" style="edgeLabel;resizable=0;html=1;fontSize=12;;align=center;verticalAlign=middle;" parent="wiBz7AC0jUXsu6t4ET3I-26" connectable="0" vertex="1">
          <mxGeometry relative="1" as="geometry" />
        </mxCell>
        <mxCell id="wiBz7AC0jUXsu6t4ET3I-28" value="Update payment status,&lt;div&gt;through Kafka&lt;/div&gt;" style="edgeLabel;html=1;align=center;verticalAlign=middle;resizable=0;points=[];fontSize=12;" parent="wiBz7AC0jUXsu6t4ET3I-26" vertex="1" connectable="0">
          <mxGeometry x="0.0535" y="3" relative="1" as="geometry">
            <mxPoint as="offset" />
          </mxGeometry>
        </mxCell>
        <mxCell id="wiBz7AC0jUXsu6t4ET3I-31" value="Catalog Service" style="rounded=0;whiteSpace=wrap;html=1;" parent="1" vertex="1">
          <mxGeometry x="1060" y="40" width="120" height="40" as="geometry" />
        </mxCell>
        <mxCell id="wiBz7AC0jUXsu6t4ET3I-32" value="" style="endArrow=none;html=1;rounded=0;fontSize=12;startSize=8;endSize=8;curved=1;" parent="1" edge="1">
          <mxGeometry width="50" height="50" relative="1" as="geometry">
            <mxPoint x="1120" y="560" as="sourcePoint" />
            <mxPoint x="1120" y="80" as="targetPoint" />
          </mxGeometry>
        </mxCell>
        <mxCell id="wiBz7AC0jUXsu6t4ET3I-37" value="" style="endArrow=classic;html=1;rounded=0;fontSize=12;startSize=8;endSize=8;curved=1;" parent="1" edge="1">
          <mxGeometry relative="1" as="geometry">
            <mxPoint x="400" y="200" as="sourcePoint" />
            <mxPoint x="1120" y="200" as="targetPoint" />
          </mxGeometry>
        </mxCell>
        <mxCell id="wiBz7AC0jUXsu6t4ET3I-38" value="Update Inventory" style="edgeLabel;resizable=0;html=1;fontSize=12;;align=center;verticalAlign=middle;" parent="wiBz7AC0jUXsu6t4ET3I-37" connectable="0" vertex="1">
          <mxGeometry relative="1" as="geometry" />
        </mxCell>
        <mxCell id="wiBz7AC0jUXsu6t4ET3I-39" value="" style="endArrow=classic;html=1;rounded=0;fontSize=12;startSize=8;endSize=8;curved=1;" parent="1" edge="1">
          <mxGeometry relative="1" as="geometry">
            <mxPoint x="620" y="480" as="sourcePoint" />
            <mxPoint x="1115" y="480" as="targetPoint" />
          </mxGeometry>
        </mxCell>
        <mxCell id="wiBz7AC0jUXsu6t4ET3I-40" value="On Payment Fail - Restore Stock" style="edgeLabel;resizable=0;html=1;fontSize=12;;align=center;verticalAlign=middle;" parent="wiBz7AC0jUXsu6t4ET3I-39" connectable="0" vertex="1">
          <mxGeometry relative="1" as="geometry">
            <mxPoint x="-5" as="offset" />
          </mxGeometry>
        </mxCell>
        <mxCell id="wiBz7AC0jUXsu6t4ET3I-42" value="Bot Service" style="rounded=0;whiteSpace=wrap;html=1;" parent="1" vertex="1">
          <mxGeometry x="1340" y="40" width="120" height="40" as="geometry" />
        </mxCell>
        <mxCell id="wiBz7AC0jUXsu6t4ET3I-43" value="" style="endArrow=none;html=1;rounded=0;fontSize=12;startSize=8;endSize=8;curved=1;" parent="1" edge="1">
          <mxGeometry width="50" height="50" relative="1" as="geometry">
            <mxPoint x="1400" y="560" as="sourcePoint" />
            <mxPoint x="1400" y="80" as="targetPoint" />
          </mxGeometry>
        </mxCell>
        <mxCell id="wiBz7AC0jUXsu6t4ET3I-45" value="" style="endArrow=classic;html=1;rounded=0;fontSize=12;startSize=8;endSize=8;curved=1;exitX=0.75;exitY=0.5;exitDx=0;exitDy=0;exitPerimeter=0;" parent="1" edge="1" source="wiBz7AC0jUXsu6t4ET3I-4">
          <mxGeometry relative="1" as="geometry">
            <mxPoint x="850" y="440" as="sourcePoint" />
            <mxPoint x="1395" y="440" as="targetPoint" />
          </mxGeometry>
        </mxCell>
        <mxCell id="wiBz7AC0jUXsu6t4ET3I-46" value="On Payment Success: Inform BOT service to add user to&lt;div&gt;group through Kafka notification&lt;/div&gt;" style="edgeLabel;resizable=0;html=1;fontSize=12;;align=center;verticalAlign=middle;" parent="wiBz7AC0jUXsu6t4ET3I-45" connectable="0" vertex="1">
          <mxGeometry relative="1" as="geometry" />
        </mxCell>
      </root>
    </mxGraphModel>
  </diagram>
</mxfile>
